<?xml version="1.0" standalone="no"?>
<!DOCTYPE svg PUBLIC "-//W3C//DTD SVG 20010904//EN"
 "http://www.w3.org/TR/2001/REC-SVG-20010904/DTD/svg10.dtd">
<svg version="1.0" xmlns="http://www.w3.org/2000/svg"
 width="400.000000pt" height="400.000000pt" viewBox="0 0 400.000000 400.000000"
 preserveAspectRatio="xMidYMid meet">
<metadata>
Created by potrace 1.14, written by Peter Selinger 2001-2017
</metadata>
<g transform="translate(0.000000,400.000000) scale(0.100000,-0.100000)"
fill="#000000" stroke="none">
<path d="M1880 2953 c-72 -13 -193 -57 -255 -93 -178 -105 -304 -265 -355
-453 -13 -49 -21 -62 -37 -63 -80 -4 -144 -48 -180 -122 -23 -47 -27 -68 -26
-134 1 -77 1 -79 -27 -93 -16 -8 -38 -15 -48 -15 -28 0 -70 37 -107 94 -43 67
-64 90 -100 109 l-30 15 30 12 c52 20 116 81 141 134 53 115 16 232 -91 289
-33 18 -57 21 -140 21 -120 -1 -191 -23 -272 -85 -110 -82 -165 -209 -167
-379 -1 -126 4 -159 34 -227 40 -94 123 -147 212 -138 89 9 110 55 119 255 5
96 44 78 135 -60 36 -55 80 -111 98 -125 63 -48 176 -37 244 23 l23 21 36 -22
c27 -16 54 -21 111 -22 l74 -2 30 -56 c71 -133 194 -250 333 -317 123 -60 189
-74 340 -74 109 1 143 5 211 26 150 45 284 137 383 261 51 65 112 183 130 254
10 38 14 42 43 41 33 -1 68 30 68 60 0 33 33 149 56 193 29 58 50 77 58 52 3
-10 4 -27 2 -38 -10 -66 45 -111 125 -101 34 4 49 3 49 -5 0 -21 50 -78 81
-95 72 -37 188 -20 262 38 l38 30 42 -28 c111 -73 294 -3 303 117 4 65 -36 76
-70 18 -21 -35 -53 -58 -92 -65 -29 -5 -84 12 -84 27 0 4 20 17 45 28 70 31
106 60 125 103 32 72 11 156 -45 182 -39 19 -52 20 -110 5 -92 -23 -155 -121
-155 -242 0 -49 -4 -63 -22 -79 -29 -25 -89 -55 -105 -52 -7 1 -24 2 -38 3
-92 4 -85 249 8 251 14 0 17 -9 17 -44 0 -57 20 -76 58 -55 35 19 47 64 32
118 -13 50 -56 81 -104 76 -17 -2 -36 -4 -42 -4 -6 -1 -31 -14 -55 -31 -49
-32 -84 -85 -97 -146 -6 -29 -13 -39 -27 -39 -18 0 -20 8 -20 84 -1 96 -15
116 -73 107 -64 -10 -128 -78 -172 -182 l-20 -49 5 45 c3 25 8 74 11 109 l7
64 -44 -6 c-24 -3 -45 -11 -47 -16 -8 -23 -21 -8 -51 55 -105 225 -317 389
-558 432 -55 10 -210 13 -253 5z m-1171 -424 c43 -26 64 -72 57 -125 -2 -24
-9 -51 -15 -61 -18 -34 -66 -72 -109 -87 l-43 -15 6 97 c6 102 2 120 -30 123
-71 7 -93 -17 -101 -112 -3 -35 -7 -73 -9 -84 -2 -11 -4 -23 -4 -27 -1 -5 -9
-8 -20 -8 -21 0 -41 -21 -46 -47 -3 -22 22 -53 45 -53 14 0 15 -9 7 -87 -12
-123 -36 -145 -81 -75 -66 100 -66 303 -2 430 30 60 99 119 158 137 64 19 151
16 187 -6z m2981 -88 c19 -37 -20 -92 -83 -119 l-28 -12 5 38 c6 47 15 72 34
95 20 23 59 22 72 -2z m-2452 -241 c2 -41 0 -47 -30 -67 -58 -39 -68 -39 -68
-4 0 41 23 96 47 110 33 20 48 9 51 -39z m26 -182 c6 -26 4 -28 -24 -28 -34 0
-70 15 -70 29 0 12 73 41 81 33 4 -4 9 -19 13 -34z"/>
<path d="M773 1273 c-39 -7 -73 -59 -73 -111 0 -59 16 -90 58 -112 40 -22 97
-11 124 23 35 44 13 65 -27 27 -33 -31 -63 -33 -91 -5 -30 30 -32 82 -4 118
24 30 65 30 90 0 17 -22 50 -26 50 -7 0 40 -70 77 -127 67z"/>
<path d="M1020 1266 c-39 -12 -70 -61 -70 -109 0 -107 120 -159 188 -82 12 15
22 34 23 43 0 9 2 27 3 40 4 31 -31 100 -54 107 -38 12 -56 12 -90 1z m86 -53
c14 -19 19 -91 6 -109 -13 -20 -48 -33 -71 -27 -49 13 -63 111 -21 145 26 21
66 17 86 -9z"/>
<path d="M1230 1272 c-6 -2 -10 -51 -10 -119 0 -112 0 -114 22 -111 20 3 22 9
22 51 l-1 47 49 0 c42 0 49 3 46 18 -3 13 -13 17 -48 17 -43 0 -45 1 -48 31
-3 29 -1 31 35 31 67 1 73 3 73 21 0 14 -10 17 -65 17 -36 0 -69 -1 -75 -3z"/>
<path d="M1634 1268 c-4 -6 -7 -163 -5 -210 1 -16 12 -18 77 -18 66 0 75 2 72
18 -2 13 -14 17 -46 18 -23 1 -46 2 -52 3 -5 0 -10 15 -10 31 0 29 1 30 50 30
43 0 50 3 50 19 0 17 -6 19 -50 15 l-50 -4 0 35 c0 33 2 34 33 33 66 -2 79 1
75 18 -2 14 -17 17 -71 18 -38 0 -71 -2 -73 -6z"/>
<path d="M1846 1264 c-9 -8 -13 -159 -7 -216 1 -5 35 -8 76 -8 66 0 75 2 75
18 0 15 -8 18 -52 17 -53 0 -53 0 -56 33 l-3 32 50 0 c42 0 51 3 51 18 0 14
-9 17 -50 16 -50 -1 -50 0 -50 31 0 30 3 32 33 33 68 0 77 2 77 16 0 18 -128
27 -144 10z"/>
<path d="M2160 1273 c-13 -3 -16 -23 -16 -119 0 -110 1 -115 21 -112 20 3 21
8 24 76 1 21 5 23 53 20 l53 -3 -1 -47 c-1 -43 1 -48 21 -48 21 0 22 3 21 115
-1 63 -5 115 -9 115 -4 0 -13 0 -21 0 -7 0 -13 -8 -13 -17 0 -82 1 -81 -50
-80 -27 1 -51 5 -54 10 -3 5 -5 26 -3 47 3 42 -1 49 -26 43z"/>
<path d="M2480 1273 c-62 -18 -89 -55 -86 -118 3 -63 14 -82 57 -103 44 -22
86 -17 119 13 35 32 45 114 19 161 -18 34 -73 57 -109 47z m60 -56 c24 -20 27
-46 15 -103 -5 -24 -40 -41 -73 -36 -23 3 -50 45 -47 72 1 8 3 23 3 33 3 26
39 57 62 54 12 -2 30 -11 40 -20z"/>
<path d="M2673 1273 c-21 -8 -17 -176 5 -202 36 -44 125 -43 157 1 11 16 15
48 15 114 0 87 -1 92 -20 87 -18 -5 -20 -14 -21 -79 -2 -97 -1 -93 -23 -110
-26 -19 -42 -18 -64 4 -15 15 -18 33 -17 96 1 76 -7 98 -32 89z"/>
<path d="M2953 1265 c-20 -8 -35 -23 -39 -39 -11 -47 -3 -55 99 -95 35 -14 35
-39 0 -52 -22 -8 -32 -6 -55 11 -39 29 -62 24 -45 -10 16 -33 71 -51 112 -37
45 15 55 26 55 62 0 36 -24 58 -77 69 -42 10 -60 31 -43 51 7 8 23 15 35 15
12 0 28 -7 35 -15 12 -14 50 -21 50 -9 0 19 -24 43 -51 53 -39 13 -37 13 -76
-4z"/>
<path d="M3190 1270 l-55 -5 0 -110 0 -110 78 -3 c62 -2 77 0 77 12 0 18 -15
23 -67 21 -42 0 -43 0 -43 32 0 33 0 33 51 33 43 0 50 3 47 18 -3 14 -12 16
-51 14 l-47 -3 0 35 c0 35 0 35 43 34 62 0 67 1 67 16 0 17 -30 22 -100 16z"/>
<path d="M1424 1158 c1 -108 2 -113 23 -116 19 -3 21 1 19 35 -4 56 1 63 46
61 25 -1 43 4 48 13 12 19 -4 27 -49 22 -34 -3 -39 -1 -43 21 -7 35 2 45 42
44 59 -1 67 1 67 17 0 12 -16 15 -77 15 l-77 0 1 -112z"/>
</g>
</svg>
