<?xml version="1.0" standalone="no"?>
<!DOCTYPE svg PUBLIC "-//W3C//DTD SVG 20010904//EN"
 "http://www.w3.org/TR/2001/REC-SVG-20010904/DTD/svg10.dtd">
<svg version="1.0" xmlns="http://www.w3.org/2000/svg"
 width="640.000000pt" height="640.000000pt" viewBox="0 0 640.000000 640.000000"
 preserveAspectRatio="xMidYMid meet">

<g transform="translate(0.000000,640.000000) scale(0.100000,-0.100000)"
fill="#000000" stroke="none">
<path d="M4420 5370 c-204 -54 -469 -223 -724 -461 l-68 -64 -49 -275 c-27
-151 -51 -286 -54 -300 -5 -18 26 7 112 92 135 134 179 171 282 240 96 66 187
107 248 114 43 6 53 3 79 -19 27 -24 29 -30 28 -94 -1 -54 -7 -80 -29 -123
-37 -73 -157 -190 -270 -263 -49 -32 -149 -96 -220 -142 l-130 -84 -54 -291
c-29 -160 -51 -293 -49 -295 2 -2 64 36 137 85 161 108 248 152 317 158 88 7
116 -24 115 -129 0 -66 -25 -136 -71 -205 -88 -130 -314 -306 -513 -399 -98
-46 -250 -95 -293 -95 -12 0 -25 -4 -28 -8 -8 -13 -117 -614 -113 -619 7 -6
122 34 212 75 206 93 589 336 900 569 376 283 533 473 596 723 18 70 21 104
17 204 -8 190 -58 292 -173 351 -52 27 -68 30 -146 30 -49 0 -85 3 -81 6 4 3
61 41 127 84 332 219 489 477 456 750 -23 188 -101 309 -241 374 -76 35 -212
40 -320 11z"/>
<path d="M3072 4505 c-133 -95 -296 -210 -361 -254 -94 -63 -121 -87 -125
-108 -3 -16 -33 -174 -66 -353 -137 -731 -222 -1169 -241 -1244 -72 -283 -212
-484 -400 -576 -84 -41 -84 -41 -184 -38 -83 3 -110 8 -159 31 -32 15 -60 26
-61 25 -4 -5 -137 -636 -139 -655 -3 -44 246 -69 384 -37 99 22 309 129 427
217 387 289 677 771 832 1383 17 66 94 462 171 879 77 418 147 791 155 830 7
38 12 71 11 72 -1 1 -111 -76 -244 -172z"/>
</g>
</svg>
