<?xml-stylesheet type="text/css" href="./styles/style.css"?> 
<svg class="hidden" viewBox="0 0 48 48">
  <symbol id="phone-icon">
    <path
      d="M14.941258,21.730858L15.440291,21.730858C15.838309,21.730858,16.237302,22.029852,16.33728,22.328846L19.128349,29.206806C19.327388,29.705795,19.128349,30.303783,18.530376,30.502786L16.137325,31.49979 12.549245,22.727846z M3.0790645,1.3959868L6.5681139,9.9679353C5.3710695,10.466925 5.6711241,11.86192 6.4681364,14.653894 6.9661313,16.447889 7.8641587,18.740873 8.9601875,20.83386 9.7581764,22.328846 10.655227,23.624841 11.951212,23.126829L15.539292,31.898773C14.044268,32.297788 7.8641587,32.097776 2.6800397,19.936863 -2.8030662,6.8779447 1.5830339,1.8939846 3.0790645,1.3959868z M6.4681364,0C6.9661313,0,7.2651482,0.29899396,7.4651643,0.59798785L10.256172,7.2769444C10.455211,7.7749422,10.256172,8.3729456,9.6581989,8.5729406L7.2651482,9.5699279 3.6770676,1.0969929 6.0691419,0.099990316C6.2690969,0,6.3680979,0,6.4681364,0z" />
  </symbol>
  <symbol id="email-icon">
    <path
      d="M30.000175,5.4762949L15.738985,16.079988 2.0000001,5.8250417 2.0000001,17.842209 8.2981547,13.293088C8.7461613,12.970092 9.3731716,13.071091 9.6941765,13.518085 10.018181,13.96608 9.9171799,14.591073 9.4691723,14.914069L2.0000001,20.309273 2.0000001,22 30.001007,22 30.000936,20.610781 22.112825,14.914133C21.66482,14.591141 21.563818,13.966156 21.887821,13.517167 22.210827,13.071177 22.834835,12.97018 23.28384,13.293172L30.000812,18.143814z M2.0000001,1.9999999L2.0000001,3.32837 15.740985,13.585993 30.000049,2.9843415 30,1.9999999z M2.0000001,7.1054274E-15L30,7.1054274E-15C31.102997,-9.6851252E-08,32,0.89700308,32,1.9999999L32,22C32,23.102997,31.102997,24,30,24L2.0000001,24C0.897003,24,-1.7217998E-07,23.102997,2.8421709E-14,22L2.8421709E-14,1.9999999C-1.7217998E-07,0.89700308,0.897003,-9.6851252E-08,2.0000001,7.1054274E-15z" />
  </symbol>
  <symbol id="github-icon">
    <path
      d="M12 0c-6.626 0-12 5.373-12 12 0 5.302 3.438 9.8 8.207 11.387.599.111.793-.261.793-.577v-2.234c-3.338.726-4.033-1.416-4.033-1.416-.546-1.387-1.333-1.756-1.333-1.756-1.089-.745.083-.729.083-.729 1.205.084 1.839 1.237 1.839 1.237 1.07 1.834 2.807 1.304 3.492.997.107-.775.418-1.305.762-1.604-2.665-.305-5.467-1.334-5.467-5.931 0-1.311.469-2.381 1.236-3.221-.124-.303-.535-1.524.117-3.176 0 0 1.008-.322 3.301 1.23.957-.266 1.983-.399 3.003-.404 1.02.005 2.047.138 3.006.404 2.291-1.552 3.297-1.23 3.297-1.23.653 1.653.242 2.874.118 3.176.77.84 1.235 1.911 1.235 3.221 0 4.609-2.807 5.624-5.479 5.921.43.372.823 1.102.823 2.222v3.293c0 .319.192.694.801.576 4.765-1.589 8.199-6.086 8.199-11.386 0-6.627-5.373-12-12-12z" />
  </symbol>
</svg>